<svg width="110" height="72" viewBox="0 0 110 72" fill="none" xmlns="http://www.w3.org/2000/svg">
<path id="Vector 39" d="M21.4372 58.8785H9.68618V2H100.836V59.1963H89.4023M14.7677 56.0187H96.0718V7.40187H14.7677V56.0187ZM48.1151 41.0841L53.1966 34.729C56.0549 37.5888 61.5 43 61.7716 42.9907C62.0433 42.9813 67.5 44.5 65.5828 38.8598C65.2905 38 59.3367 32.1869 57.6429 30.2804L63.6772 25.1963L43.9864 21.7009L48.1151 41.0841ZM50.3382 64.5981H59.2309L61.7716 63.0093H107.505C108.246 64.7041 108.712 68.4748 104.647 70C100.582 69.7458 36.6817 69.8941 5.23986 70C3.54602 69.2586 0.6665 66.886 2.6991 63.3271C6.00208 63.3271 35.2 63.3271 49.3861 63.3271L50.3382 64.5981Z" stroke="white" stroke-width="3"/>
</svg>
