<svg width="88" height="101" viewBox="0 0 88 101" fill="none" xmlns="http://www.w3.org/2000/svg">
<g id="Group 265">
<path id="Vector 37" d="M48.2418 71.5088L45.9741 70.4564C38.4685 65.9152 37.3462 70.7526 38.8441 72.9905C41.9045 75.401 51.3547 81.544 63.1736 89.2266L63.2557 89.28C81.9666 92.6716 85.2316 78.8262 84.5253 71.4795C82.554 67.8086 77.832 59.2011 74.7137 54.1379C69.8374 48.0164 67.451 53.6338 67.3769 55.694C62.6785 48.0014 59.3139 53.8263 58.7506 55.9903C53.6521 49.3026 50.9446 53.7273 50.2281 56.7756C48.8596 54.34 45.5032 48.4758 43.0251 44.5035C37.8909 41.5035 36.9235 45.4569 37.0815 47.8086C40.8856 54.4983 48.6746 68.2481 49.3979 69.7302C50.1212 71.2124 48.9285 71.5335 48.2418 71.5088Z" fill="white"/>
<path id="Vector 36" d="M15.1443 84.1515L13.3826 25.2349C12.4638 13.6736 17.7549 10.5067 20.9567 10.3387C28.4071 10.1215 45.1518 9.70541 52.5271 9.77671C59.9024 9.84802 61.4596 13.3341 61.3163 15.0683L62.0863 47.6168L57.1951 48.6542L56.8992 23.1608L18.2738 24.1975L19.6955 79.0972L40.0902 78.8605L57.6981 91.9929C46.8829 92.4127 24.212 93.1663 20.0501 92.8223C15.8882 92.4784 15.0454 86.8985 15.1443 84.1515Z" fill="white"/>
<path id="Ellipse 103" d="M36.0284 59.6257C33.6319 58.9053 31.4828 57.5329 29.8211 55.6618C28.1594 53.7907 27.0504 51.4946 26.618 49.0298C26.1857 46.5649 26.4469 44.0284 27.3726 41.7035C28.2983 39.3785 29.852 37.3566 31.8603 35.8635C33.8685 34.3704 36.2522 33.4649 38.7452 33.2481C41.2383 33.0312 43.7425 33.5116 45.9784 34.6356C48.2142 35.7595 50.0937 37.4828 51.4069 39.613C52.7201 41.7432 53.4153 44.1965 53.415 46.699L49.3473 46.6985C49.3475 44.9501 48.8617 43.236 47.9442 41.7476C47.0267 40.2593 45.7136 39.0552 44.1514 38.27C42.5893 37.4847 40.8396 37.149 39.0977 37.3005C37.3559 37.452 35.6904 38.0847 34.2873 39.1279C32.8842 40.1711 31.7986 41.5838 31.1518 43.2082C30.5051 44.8326 30.3225 46.6048 30.6246 48.327C30.9267 50.0491 31.7015 51.6534 32.8625 52.9607C34.0236 54.268 35.5251 55.2268 37.1995 55.7302L36.0284 59.6257Z" fill="white"/>
</g>
</svg>
