<svg width="76" height="60" viewBox="0 0 76 60" fill="none" xmlns="http://www.w3.org/2000/svg">
<g id="Group 277">
<g id="Vector 41">
<path d="M37.7075 1.02122C75.707 3.45932 79.0003 40.0041 70 59H59.298L62.2075 51.3485C64.1923 46.4926 65.1936 42.0469 65.4273 38.0146C65.7726 32.0566 64.7277 27.0767 62.741 23.0198C60.433 18.3066 56.854 14.8392 52.7074 12.5312C48.0876 9.95973 42.7634 8.82737 37.7075 9.01463C31.7319 9.23594 27.0122 11.3321 23.2075 13.321C18.5521 15.7546 15.3456 18.9279 13.2537 22.5146C10.5964 27.0706 9.73726 32.2935 9.99088 37.5146C10.2263 42.3612 11.4206 47.2062 13.0253 51.5146C13.9791 54.0753 14.8713 55.9308 16 58C14.8335 58 11.4072 58.5157 6.20717 58.5157C-13.7928 9.01568 29.707 0.507901 37.7075 1.02122Z" fill="white"/>
<path d="M39.7074 47.5198C43.3741 43.5198 51.2074 29.5198 51.2074 29.5198C48.2074 31.0198 42.0838 35.0939 34.7074 39.5198C29.7074 42.5198 36.0407 51.5198 39.7074 47.5198Z" fill="white"/>
<path d="M37.7075 9.01463C31.7319 9.23594 27.0122 11.3321 23.2075 13.321M37.7075 9.01463V15.5146M37.7075 9.01463C42.7634 8.82737 48.0876 9.95973 52.7074 12.5312M13.0253 51.5146C13.9791 54.0753 14.8713 55.9308 16 58C14.8335 58 11.4072 58.5157 6.20717 58.5157C-13.7928 9.01568 29.707 0.507901 37.7075 1.02122C75.707 3.45932 79.0003 40.0041 70 59H59.298L62.2075 51.3485M13.0253 51.5146L17.7075 48.0146M13.0253 51.5146C11.4206 47.2062 10.2263 42.3612 9.99088 37.5146M9.99088 37.5146H15.2075M9.99088 37.5146C9.73726 32.2935 10.5964 27.0706 13.2537 22.5146M13.2537 22.5146L17.7075 26.5146M13.2537 22.5146C15.3456 18.9279 18.5521 15.7546 23.2075 13.321M23.2075 13.321L26.2075 18.0146M65.4273 38.0146H59.7075M65.4273 38.0146C65.1936 42.0469 64.1923 46.4926 62.2075 51.3485M65.4273 38.0146C65.7726 32.0566 64.7277 27.0767 62.741 23.0198M62.2075 51.3485L58.7072 48.5146M52.7074 12.5312L48.7074 18.5198M52.7074 12.5312C56.854 14.8392 60.433 18.3066 62.741 23.0198M62.741 23.0198L57.2074 26.5198M51.2074 29.5198C51.2074 29.5198 43.3741 43.5198 39.7074 47.5198C36.0407 51.5198 29.7074 42.5198 34.7074 39.5198C42.0838 35.0939 48.2074 31.0198 51.2074 29.5198Z" stroke="white" stroke-width="2" stroke-linecap="round"/>
</g>
<path id="Vector 42" d="M59 59L16 58" stroke="white" stroke-width="2"/>
</g>
</svg>
